<svg width="30px" height="31px" viewBox="0 0 30 31" version="1.1" xmlns="http://www.w3.org/2000/svg" xmlns:xlink="http://www.w3.org/1999/xlink">
    <!-- Generator: Sketch 41.2 (35397) - http://www.bohemiancoding.com/sketch -->
    <desc>Created with Sketch.</desc>
    <defs></defs>
    <g id="Group-2" stroke="none" stroke-width="1" fill="none" fill-rule="evenodd" transform="translate(15.000000, 0.000000)">
        <rect id="Rectangle" fill="#FD5C63" x="0" y="0.164835165" width="4.32515337" height="14.8340573" rx="2.16257669"></rect>
        <rect id="Rectangle" fill="#FD5C63" transform="translate(7.500000, 12.860240) rotate(90.000000) translate(-7.500000, -12.860240) " x="5.33742331" y="5.4432114" width="4.32515337" height="14.8340573" rx="2.16257669"></rect>
        <rect id="Rectangle" fill="#FD5C63" x="10.6748466" y="0.164835165" width="4.32515337" height="14.8340573" rx="2.16257669"></rect>
        <rect id="Rectangle" fill="#FD5C63" transform="translate(7.500000, 2.303488) rotate(90.000000) translate(-7.500000, -2.303488) " x="5.33742331" y="-5.11354107" width="4.32515337" height="14.8340573" rx="2.16257669"></rect>
    </g>
    <g id="Group-2" stroke="none" stroke-width="1" fill="none" fill-rule="evenodd" transform="translate(0.000000, 15.000000)">
        <rect id="Rectangle" fill="#FD5C63" x="0" y="0.164835165" width="4.32515337" height="14.8340573" rx="2.16257669"></rect>
        <rect id="Rectangle" fill="#FD5C63" transform="translate(7.500000, 12.860240) rotate(90.000000) translate(-7.500000, -12.860240) " x="5.33742331" y="5.4432114" width="4.32515337" height="14.8340573" rx="2.16257669"></rect>
        <rect id="Rectangle" fill="#FD5C63" x="10.6748466" y="0.164835165" width="4.32515337" height="14.8340573" rx="2.16257669"></rect>
        <rect id="Rectangle" fill="#FD5C63" transform="translate(7.500000, 2.303488) rotate(90.000000) translate(-7.500000, -2.303488) " x="5.33742331" y="-5.11354107" width="4.32515337" height="14.8340573" rx="2.16257669"></rect>
    </g>
</svg>
