<?xml version="1.0" encoding="UTF-8" standalone="no"?>
<svg width="79px" height="101px" viewBox="0 0 79 101" version="1.1" xmlns="http://www.w3.org/2000/svg" xmlns:xlink="http://www.w3.org/1999/xlink">
    <!-- Generator: Sketch 40.2 (33826) - http://www.bohemiancoding.com/sketch -->
    <title>lahacks</title>
    <desc>Created with Sketch.</desc>
    <defs></defs>
    <g id="Page-1" stroke="none" stroke-width="1" fill="none" fill-rule="evenodd">
        <g id="application-on-scroll:end" transform="translate(-53.000000, -29.000000)" fill="#4A4A4A">
            <g id="lahacks" transform="translate(52.000000, 29.000000)">
                <g id="Group" transform="translate(0.795455, 0.000000)">
                    <path d="M0.208602273,73.9846958 C0.208602273,92.5941186 0.218159091,92.5941186 18.4011591,92.5941186 L29.3124091,92.5941186 L47.9752273,92.5941186 C48.4959091,92.5941186 48.9210227,92.1770859 48.9282727,91.6581046 L48.9282727,89.3541971 L48.9282727,74.6257516 L48.9282727,64.7139673 C48.9282727,63.3012032 48.9282727,63.3012032 47.8552727,62.834351 L31.6927159,55.3389807 C30.3343295,54.740816 30.3343295,54.740816 30.3343295,56.1977908 L30.3343295,70.1611266 C30.3343295,73.9559918 30.3343295,73.9559918 24.8101591,73.9559918 C18.9254659,73.9559918 18.955125,73.9559918 18.955125,70.1611266 L18.955125,27.346323 L18.955125,9.38488458 C18.955125,7.28454444 8.77315909,0.111186715 3.05521591,0.111186715 C0.217829545,0.111186715 0.211238636,2.85291253 0.208272727,3.29172063 L0.208272727,73.9846958 L0.208602273,73.9846958 Z" id="Shape"></path>
                    <path d="M79.1489091,33.4672012 C79.1489091,17.3292908 79.180875,11.4321058 54.7315682,11.4321058 C30.3343295,11.4321058 30.3343295,16.3500559 30.3343295,33.4672012 L30.3343295,41.5254336 C30.3343295,42.2054212 30.5491932,42.2271966 30.8830227,42.3832539 L47.5560455,50.4170715 C48.9282727,51.0643959 48.9282727,51.0643959 48.9150909,49.5579314 L48.9150909,33.1402396 C48.9150909,30.6693871 48.9282727,30.1055352 54.5829432,30.1055352 C60.3078068,30.1055352 60.3723977,30.6693871 60.3723977,33.0759031 L60.3723977,92.1595996 C60.3723977,94.1329163 60.3723977,94.1329163 60.9191136,94.8148835 C65.6579773,98.3857257 69.4174318,100.768157 76.2584659,100.768157 C79.1489091,100.768157 79.1489091,98.3946338 79.1489091,98.3946338 L79.1489091,33.4672012 Z" id="Shape"></path>
                </g>
            </g>
        </g>
    </g>
</svg>