<svg width="1352px" height="150px" viewBox="44 841 1352 150" version="1.1" xmlns="http://www.w3.org/2000/svg" xmlns:xlink="http://www.w3.org/1999/xlink">
    <!-- Generator: Sketch 41.2 (35397) - http://www.bohemiancoding.com/sketch -->
    <desc>Created with Sketch.</desc>
    <defs></defs>
    <g id="New-buildings" stroke="none" stroke-width="1" fill="none" fill-rule="evenodd" transform="translate(44.000000, 841.000000)">
        <g id="Block" transform="translate(0.000000, 110.000000)" fill="#737373">
            <g id="Group-2">
                <rect id="Rectangle" x="0.82" y="0.43956044" width="11.3492025" height="39.5574862" rx="5.67460123"></rect>
                <rect id="Rectangle" transform="translate(20.500000, 34.293974) rotate(90.000000) translate(-20.500000, -34.293974) " x="14.8253988" y="14.5152304" width="11.3492025" height="39.5574862" rx="5.67460123"></rect>
                <rect id="Rectangle" x="28.8307975" y="0.43956044" width="11.3492025" height="39.5574862" rx="5.67460123"></rect>
                <rect id="Rectangle" transform="translate(20.500000, 6.142634) rotate(90.000000) translate(-20.500000, -6.142634) " x="14.8253988" y="-13.6361095" width="11.3492025" height="39.5574862" rx="5.67460123"></rect>
            </g>
        </g>
        <g id="Block" transform="translate(57.000000, 110.000000)" fill="#737373">
            <g id="Group-2">
                <rect id="Rectangle" x="0.82" y="0.43956044" width="11.3492025" height="39.5574862" rx="5.67460123"></rect>
                <rect id="Rectangle" transform="translate(20.500000, 34.293974) rotate(90.000000) translate(-20.500000, -34.293974) " x="14.8253988" y="14.5152304" width="11.3492025" height="39.5574862" rx="5.67460123"></rect>
                <rect id="Rectangle" x="28.8307975" y="0.43956044" width="11.3492025" height="39.5574862" rx="5.67460123"></rect>
                <rect id="Rectangle" transform="translate(20.500000, 6.142634) rotate(90.000000) translate(-20.500000, -6.142634) " x="14.8253988" y="-13.6361095" width="11.3492025" height="39.5574862" rx="5.67460123"></rect>
            </g>
        </g>
        <g id="Block" transform="translate(171.000000, 110.000000)" fill="#737373">
            <g id="Group-2">
                <rect id="Rectangle" x="0.82" y="0.43956044" width="11.3492025" height="39.5574862" rx="5.67460123"></rect>
                <rect id="Rectangle" transform="translate(20.500000, 34.293974) rotate(90.000000) translate(-20.500000, -34.293974) " x="14.8253988" y="14.5152304" width="11.3492025" height="39.5574862" rx="5.67460123"></rect>
                <rect id="Rectangle" x="28.8307975" y="0.43956044" width="11.3492025" height="39.5574862" rx="5.67460123"></rect>
                <rect id="Rectangle" transform="translate(20.500000, 6.142634) rotate(90.000000) translate(-20.500000, -6.142634) " x="14.8253988" y="-13.6361095" width="11.3492025" height="39.5574862" rx="5.67460123"></rect>
            </g>
        </g>
        <g id="Block" transform="translate(114.000000, 110.000000)" fill="#737373">
            <g id="Group-2">
                <rect id="Rectangle" x="0.82" y="0.43956044" width="11.3492025" height="39.5574862" rx="5.67460123"></rect>
                <rect id="Rectangle" transform="translate(20.500000, 34.293974) rotate(90.000000) translate(-20.500000, -34.293974) " x="14.8253988" y="14.5152304" width="11.3492025" height="39.5574862" rx="5.67460123"></rect>
                <rect id="Rectangle" x="28.8307975" y="0.43956044" width="11.3492025" height="39.5574862" rx="5.67460123"></rect>
                <rect id="Rectangle" transform="translate(20.500000, 6.142634) rotate(90.000000) translate(-20.500000, -6.142634) " x="14.8253988" y="-13.6361095" width="11.3492025" height="39.5574862" rx="5.67460123"></rect>
            </g>
        </g>
        <g id="Block" transform="translate(57.000000, 55.000000)" fill="#737373">
            <g id="Group-2">
                <rect id="Rectangle" x="0.82" y="0.43956044" width="11.3492025" height="39.5574862" rx="5.67460123"></rect>
                <rect id="Rectangle" transform="translate(20.500000, 34.293974) rotate(90.000000) translate(-20.500000, -34.293974) " x="14.8253988" y="14.5152304" width="11.3492025" height="39.5574862" rx="5.67460123"></rect>
                <rect id="Rectangle" x="28.8307975" y="0.43956044" width="11.3492025" height="39.5574862" rx="5.67460123"></rect>
                <rect id="Rectangle" transform="translate(20.500000, 6.142634) rotate(90.000000) translate(-20.500000, -6.142634) " x="14.8253988" y="-13.6361095" width="11.3492025" height="39.5574862" rx="5.67460123"></rect>
            </g>
        </g>
        <g id="Block" transform="translate(0.000000, 55.000000)" fill="#737373">
            <g id="Group-2">
                <rect id="Rectangle" x="0.82" y="0.43956044" width="11.3492025" height="39.5574862" rx="5.67460123"></rect>
                <rect id="Rectangle" transform="translate(20.500000, 34.293974) rotate(90.000000) translate(-20.500000, -34.293974) " x="14.8253988" y="14.5152304" width="11.3492025" height="39.5574862" rx="5.67460123"></rect>
                <rect id="Rectangle" x="28.8307975" y="0.43956044" width="11.3492025" height="39.5574862" rx="5.67460123"></rect>
                <rect id="Rectangle" transform="translate(20.500000, 6.142634) rotate(90.000000) translate(-20.500000, -6.142634) " x="14.8253988" y="-13.6361095" width="11.3492025" height="39.5574862" rx="5.67460123"></rect>
            </g>
        </g>
        <g id="Block" transform="translate(114.000000, 0.000000)" fill="#737373">
            <g id="Group-2">
                <rect id="Rectangle" x="0.82" y="0.43956044" width="11.3492025" height="39.5574862" rx="5.67460123"></rect>
                <rect id="Rectangle" transform="translate(20.500000, 34.293974) rotate(90.000000) translate(-20.500000, -34.293974) " x="14.8253988" y="14.5152304" width="11.3492025" height="39.5574862" rx="5.67460123"></rect>
                <rect id="Rectangle" x="28.8307975" y="0.43956044" width="11.3492025" height="39.5574862" rx="5.67460123"></rect>
                <rect id="Rectangle" transform="translate(20.500000, 6.142634) rotate(90.000000) translate(-20.500000, -6.142634) " x="14.8253988" y="-13.6361095" width="11.3492025" height="39.5574862" rx="5.67460123"></rect>
            </g>
        </g>
        <g id="Block" transform="translate(114.000000, 55.000000)" fill="#737373">
            <g id="Group-2">
                <rect id="Rectangle" x="0.82" y="0.43956044" width="11.3492025" height="39.5574862" rx="5.67460123"></rect>
                <rect id="Rectangle" transform="translate(20.500000, 34.293974) rotate(90.000000) translate(-20.500000, -34.293974) " x="14.8253988" y="14.5152304" width="11.3492025" height="39.5574862" rx="5.67460123"></rect>
                <rect id="Rectangle" x="28.8307975" y="0.43956044" width="11.3492025" height="39.5574862" rx="5.67460123"></rect>
                <rect id="Rectangle" transform="translate(20.500000, 6.142634) rotate(90.000000) translate(-20.500000, -6.142634) " x="14.8253988" y="-13.6361095" width="11.3492025" height="39.5574862" rx="5.67460123"></rect>
            </g>
        </g>
        <g id="Block" transform="translate(228.000000, 110.000000)" fill="#737373">
            <g id="Group-2">
                <rect id="Rectangle" x="0.82" y="0.43956044" width="11.3492025" height="39.5574862" rx="5.67460123"></rect>
                <rect id="Rectangle" transform="translate(20.500000, 34.293974) rotate(90.000000) translate(-20.500000, -34.293974) " x="14.8253988" y="14.5152304" width="11.3492025" height="39.5574862" rx="5.67460123"></rect>
                <rect id="Rectangle" x="28.8307975" y="0.43956044" width="11.3492025" height="39.5574862" rx="5.67460123"></rect>
                <rect id="Rectangle" transform="translate(20.500000, 6.142634) rotate(90.000000) translate(-20.500000, -6.142634) " x="14.8253988" y="-13.6361095" width="11.3492025" height="39.5574862" rx="5.67460123"></rect>
            </g>
        </g>
        <g id="Block" transform="translate(285.000000, 110.000000)" fill="#737373">
            <g id="Group-2">
                <rect id="Rectangle" x="0.82" y="0.43956044" width="11.3492025" height="39.5574862" rx="5.67460123"></rect>
                <rect id="Rectangle" transform="translate(20.500000, 34.293974) rotate(90.000000) translate(-20.500000, -34.293974) " x="14.8253988" y="14.5152304" width="11.3492025" height="39.5574862" rx="5.67460123"></rect>
                <rect id="Rectangle" x="28.8307975" y="0.43956044" width="11.3492025" height="39.5574862" rx="5.67460123"></rect>
                <rect id="Rectangle" transform="translate(20.500000, 6.142634) rotate(90.000000) translate(-20.500000, -6.142634) " x="14.8253988" y="-13.6361095" width="11.3492025" height="39.5574862" rx="5.67460123"></rect>
            </g>
        </g>
        <g id="Block" transform="translate(399.000000, 110.000000)" fill="#737373">
            <g id="Group-2">
                <rect id="Rectangle" x="0.82" y="0.43956044" width="11.3492025" height="39.5574862" rx="5.67460123"></rect>
                <rect id="Rectangle" transform="translate(20.500000, 34.293974) rotate(90.000000) translate(-20.500000, -34.293974) " x="14.8253988" y="14.5152304" width="11.3492025" height="39.5574862" rx="5.67460123"></rect>
                <rect id="Rectangle" x="28.8307975" y="0.43956044" width="11.3492025" height="39.5574862" rx="5.67460123"></rect>
                <rect id="Rectangle" transform="translate(20.500000, 6.142634) rotate(90.000000) translate(-20.500000, -6.142634) " x="14.8253988" y="-13.6361095" width="11.3492025" height="39.5574862" rx="5.67460123"></rect>
            </g>
        </g>
        <g id="Block" transform="translate(342.000000, 110.000000)" fill="#737373">
            <g id="Group-2">
                <rect id="Rectangle" x="0.82" y="0.43956044" width="11.3492025" height="39.5574862" rx="5.67460123"></rect>
                <rect id="Rectangle" transform="translate(20.500000, 34.293974) rotate(90.000000) translate(-20.500000, -34.293974) " x="14.8253988" y="14.5152304" width="11.3492025" height="39.5574862" rx="5.67460123"></rect>
                <rect id="Rectangle" x="28.8307975" y="0.43956044" width="11.3492025" height="39.5574862" rx="5.67460123"></rect>
                <rect id="Rectangle" transform="translate(20.500000, 6.142634) rotate(90.000000) translate(-20.500000, -6.142634) " x="14.8253988" y="-13.6361095" width="11.3492025" height="39.5574862" rx="5.67460123"></rect>
            </g>
        </g>
        <g id="Block" transform="translate(228.000000, 55.000000)" fill="#737373">
            <g id="Group-2">
                <rect id="Rectangle" x="0.82" y="0.43956044" width="11.3492025" height="39.5574862" rx="5.67460123"></rect>
                <rect id="Rectangle" transform="translate(20.500000, 34.293974) rotate(90.000000) translate(-20.500000, -34.293974) " x="14.8253988" y="14.5152304" width="11.3492025" height="39.5574862" rx="5.67460123"></rect>
                <rect id="Rectangle" x="28.8307975" y="0.43956044" width="11.3492025" height="39.5574862" rx="5.67460123"></rect>
                <rect id="Rectangle" transform="translate(20.500000, 6.142634) rotate(90.000000) translate(-20.500000, -6.142634) " x="14.8253988" y="-13.6361095" width="11.3492025" height="39.5574862" rx="5.67460123"></rect>
            </g>
        </g>
        <g id="Block" transform="translate(285.000000, 55.000000)" fill="#737373">
            <g id="Group-2">
                <rect id="Rectangle" x="0.82" y="0.43956044" width="11.3492025" height="39.5574862" rx="5.67460123"></rect>
                <rect id="Rectangle" transform="translate(20.500000, 34.293974) rotate(90.000000) translate(-20.500000, -34.293974) " x="14.8253988" y="14.5152304" width="11.3492025" height="39.5574862" rx="5.67460123"></rect>
                <rect id="Rectangle" x="28.8307975" y="0.43956044" width="11.3492025" height="39.5574862" rx="5.67460123"></rect>
                <rect id="Rectangle" transform="translate(20.500000, 6.142634) rotate(90.000000) translate(-20.500000, -6.142634) " x="14.8253988" y="-13.6361095" width="11.3492025" height="39.5574862" rx="5.67460123"></rect>
            </g>
        </g>
        <g id="Block" transform="translate(285.000000, 0.000000)" fill="#737373">
            <g id="Group-2">
                <rect id="Rectangle" x="0.82" y="0.43956044" width="11.3492025" height="39.5574862" rx="5.67460123"></rect>
                <rect id="Rectangle" transform="translate(20.500000, 34.293974) rotate(90.000000) translate(-20.500000, -34.293974) " x="14.8253988" y="14.5152304" width="11.3492025" height="39.5574862" rx="5.67460123"></rect>
                <rect id="Rectangle" x="28.8307975" y="0.43956044" width="11.3492025" height="39.5574862" rx="5.67460123"></rect>
                <rect id="Rectangle" transform="translate(20.500000, 6.142634) rotate(90.000000) translate(-20.500000, -6.142634) " x="14.8253988" y="-13.6361095" width="11.3492025" height="39.5574862" rx="5.67460123"></rect>
            </g>
        </g>
        <g id="Block" transform="translate(342.000000, 55.000000)" fill="#737373">
            <g id="Group-2">
                <rect id="Rectangle" x="0.82" y="0.43956044" width="11.3492025" height="39.5574862" rx="5.67460123"></rect>
                <rect id="Rectangle" transform="translate(20.500000, 34.293974) rotate(90.000000) translate(-20.500000, -34.293974) " x="14.8253988" y="14.5152304" width="11.3492025" height="39.5574862" rx="5.67460123"></rect>
                <rect id="Rectangle" x="28.8307975" y="0.43956044" width="11.3492025" height="39.5574862" rx="5.67460123"></rect>
                <rect id="Rectangle" transform="translate(20.500000, 6.142634) rotate(90.000000) translate(-20.500000, -6.142634) " x="14.8253988" y="-13.6361095" width="11.3492025" height="39.5574862" rx="5.67460123"></rect>
            </g>
        </g>
        <g id="Block" transform="translate(456.000000, 110.000000)" fill="#737373">
            <g id="Group-2">
                <rect id="Rectangle" x="0.82" y="0.43956044" width="11.3492025" height="39.5574862" rx="5.67460123"></rect>
                <rect id="Rectangle" transform="translate(20.500000, 34.293974) rotate(90.000000) translate(-20.500000, -34.293974) " x="14.8253988" y="14.5152304" width="11.3492025" height="39.5574862" rx="5.67460123"></rect>
                <rect id="Rectangle" x="28.8307975" y="0.43956044" width="11.3492025" height="39.5574862" rx="5.67460123"></rect>
                <rect id="Rectangle" transform="translate(20.500000, 6.142634) rotate(90.000000) translate(-20.500000, -6.142634) " x="14.8253988" y="-13.6361095" width="11.3492025" height="39.5574862" rx="5.67460123"></rect>
            </g>
        </g>
        <g id="Block" transform="translate(570.000000, 110.000000)" fill="#737373">
            <g id="Group-2">
                <rect id="Rectangle" x="0.82" y="0.43956044" width="11.3492025" height="39.5574862" rx="5.67460123"></rect>
                <rect id="Rectangle" transform="translate(20.500000, 34.293974) rotate(90.000000) translate(-20.500000, -34.293974) " x="14.8253988" y="14.5152304" width="11.3492025" height="39.5574862" rx="5.67460123"></rect>
                <rect id="Rectangle" x="28.8307975" y="0.43956044" width="11.3492025" height="39.5574862" rx="5.67460123"></rect>
                <rect id="Rectangle" transform="translate(20.500000, 6.142634) rotate(90.000000) translate(-20.500000, -6.142634) " x="14.8253988" y="-13.6361095" width="11.3492025" height="39.5574862" rx="5.67460123"></rect>
            </g>
        </g>
        <g id="Block" transform="translate(513.000000, 110.000000)" fill="#737373">
            <g id="Group-2">
                <rect id="Rectangle" x="0.82" y="0.43956044" width="11.3492025" height="39.5574862" rx="5.67460123"></rect>
                <rect id="Rectangle" transform="translate(20.500000, 34.293974) rotate(90.000000) translate(-20.500000, -34.293974) " x="14.8253988" y="14.5152304" width="11.3492025" height="39.5574862" rx="5.67460123"></rect>
                <rect id="Rectangle" x="28.8307975" y="0.43956044" width="11.3492025" height="39.5574862" rx="5.67460123"></rect>
                <rect id="Rectangle" transform="translate(20.500000, 6.142634) rotate(90.000000) translate(-20.500000, -6.142634) " x="14.8253988" y="-13.6361095" width="11.3492025" height="39.5574862" rx="5.67460123"></rect>
            </g>
        </g>
        <g id="Block" transform="translate(456.000000, 55.000000)" fill="#737373">
            <g id="Group-2">
                <rect id="Rectangle" x="0.82" y="0.43956044" width="11.3492025" height="39.5574862" rx="5.67460123"></rect>
                <rect id="Rectangle" transform="translate(20.500000, 34.293974) rotate(90.000000) translate(-20.500000, -34.293974) " x="14.8253988" y="14.5152304" width="11.3492025" height="39.5574862" rx="5.67460123"></rect>
                <rect id="Rectangle" x="28.8307975" y="0.43956044" width="11.3492025" height="39.5574862" rx="5.67460123"></rect>
                <rect id="Rectangle" transform="translate(20.500000, 6.142634) rotate(90.000000) translate(-20.500000, -6.142634) " x="14.8253988" y="-13.6361095" width="11.3492025" height="39.5574862" rx="5.67460123"></rect>
            </g>
        </g>
        <g id="Block" transform="translate(456.000000, 0.000000)" fill="#737373">
            <g id="Group-2">
                <rect id="Rectangle" x="0.82" y="0.43956044" width="11.3492025" height="39.5574862" rx="5.67460123"></rect>
                <rect id="Rectangle" transform="translate(20.500000, 34.293974) rotate(90.000000) translate(-20.500000, -34.293974) " x="14.8253988" y="14.5152304" width="11.3492025" height="39.5574862" rx="5.67460123"></rect>
                <rect id="Rectangle" x="28.8307975" y="0.43956044" width="11.3492025" height="39.5574862" rx="5.67460123"></rect>
                <rect id="Rectangle" transform="translate(20.500000, 6.142634) rotate(90.000000) translate(-20.500000, -6.142634) " x="14.8253988" y="-13.6361095" width="11.3492025" height="39.5574862" rx="5.67460123"></rect>
            </g>
        </g>
        <g id="Block" transform="translate(513.000000, 0.000000)" fill="#737373">
            <g id="Group-2">
                <rect id="Rectangle" x="0.82" y="0.43956044" width="11.3492025" height="39.5574862" rx="5.67460123"></rect>
                <rect id="Rectangle" transform="translate(20.500000, 34.293974) rotate(90.000000) translate(-20.500000, -34.293974) " x="14.8253988" y="14.5152304" width="11.3492025" height="39.5574862" rx="5.67460123"></rect>
                <rect id="Rectangle" x="28.8307975" y="0.43956044" width="11.3492025" height="39.5574862" rx="5.67460123"></rect>
                <rect id="Rectangle" transform="translate(20.500000, 6.142634) rotate(90.000000) translate(-20.500000, -6.142634) " x="14.8253988" y="-13.6361095" width="11.3492025" height="39.5574862" rx="5.67460123"></rect>
            </g>
        </g>
        <g id="Block" transform="translate(513.000000, 55.000000)" fill="#737373">
            <g id="Group-2">
                <rect id="Rectangle" x="0.82" y="0.43956044" width="11.3492025" height="39.5574862" rx="5.67460123"></rect>
                <rect id="Rectangle" transform="translate(20.500000, 34.293974) rotate(90.000000) translate(-20.500000, -34.293974) " x="14.8253988" y="14.5152304" width="11.3492025" height="39.5574862" rx="5.67460123"></rect>
                <rect id="Rectangle" x="28.8307975" y="0.43956044" width="11.3492025" height="39.5574862" rx="5.67460123"></rect>
                <rect id="Rectangle" transform="translate(20.500000, 6.142634) rotate(90.000000) translate(-20.500000, -6.142634) " x="14.8253988" y="-13.6361095" width="11.3492025" height="39.5574862" rx="5.67460123"></rect>
            </g>
        </g>
        <g id="Block" transform="translate(741.000000, 110.000000)" fill="#737373">
            <g id="Group-2">
                <rect id="Rectangle" x="0.82" y="0.43956044" width="11.3492025" height="39.5574862" rx="5.67460123"></rect>
                <rect id="Rectangle" transform="translate(20.500000, 34.293974) rotate(90.000000) translate(-20.500000, -34.293974) " x="14.8253988" y="14.5152304" width="11.3492025" height="39.5574862" rx="5.67460123"></rect>
                <rect id="Rectangle" x="28.8307975" y="0.43956044" width="11.3492025" height="39.5574862" rx="5.67460123"></rect>
                <rect id="Rectangle" transform="translate(20.500000, 6.142634) rotate(90.000000) translate(-20.500000, -6.142634) " x="14.8253988" y="-13.6361095" width="11.3492025" height="39.5574862" rx="5.67460123"></rect>
            </g>
        </g>
        <g id="Block" transform="translate(798.000000, 110.000000)" fill="#737373">
            <g id="Group-2">
                <rect id="Rectangle" x="0.82" y="0.43956044" width="11.3492025" height="39.5574862" rx="5.67460123"></rect>
                <rect id="Rectangle" transform="translate(20.500000, 34.293974) rotate(90.000000) translate(-20.500000, -34.293974) " x="14.8253988" y="14.5152304" width="11.3492025" height="39.5574862" rx="5.67460123"></rect>
                <rect id="Rectangle" x="28.8307975" y="0.43956044" width="11.3492025" height="39.5574862" rx="5.67460123"></rect>
                <rect id="Rectangle" transform="translate(20.500000, 6.142634) rotate(90.000000) translate(-20.500000, -6.142634) " x="14.8253988" y="-13.6361095" width="11.3492025" height="39.5574862" rx="5.67460123"></rect>
            </g>
        </g>
        <g id="Block" transform="translate(855.000000, 110.000000)" fill="#737373">
            <g id="Group-2">
                <rect id="Rectangle" x="0.82" y="0.43956044" width="11.3492025" height="39.5574862" rx="5.67460123"></rect>
                <rect id="Rectangle" transform="translate(20.500000, 34.293974) rotate(90.000000) translate(-20.500000, -34.293974) " x="14.8253988" y="14.5152304" width="11.3492025" height="39.5574862" rx="5.67460123"></rect>
                <rect id="Rectangle" x="28.8307975" y="0.43956044" width="11.3492025" height="39.5574862" rx="5.67460123"></rect>
                <rect id="Rectangle" transform="translate(20.500000, 6.142634) rotate(90.000000) translate(-20.500000, -6.142634) " x="14.8253988" y="-13.6361095" width="11.3492025" height="39.5574862" rx="5.67460123"></rect>
            </g>
        </g>
        <g id="Block" transform="translate(741.000000, 55.000000)" fill="#737373">
            <g id="Group-2">
                <rect id="Rectangle" x="0.82" y="0.43956044" width="11.3492025" height="39.5574862" rx="5.67460123"></rect>
                <rect id="Rectangle" transform="translate(20.500000, 34.293974) rotate(90.000000) translate(-20.500000, -34.293974) " x="14.8253988" y="14.5152304" width="11.3492025" height="39.5574862" rx="5.67460123"></rect>
                <rect id="Rectangle" x="28.8307975" y="0.43956044" width="11.3492025" height="39.5574862" rx="5.67460123"></rect>
                <rect id="Rectangle" transform="translate(20.500000, 6.142634) rotate(90.000000) translate(-20.500000, -6.142634) " x="14.8253988" y="-13.6361095" width="11.3492025" height="39.5574862" rx="5.67460123"></rect>
            </g>
        </g>
        <g id="Block" transform="translate(741.000000, 0.000000)" fill="#737373">
            <g id="Group-2">
                <rect id="Rectangle" x="0.82" y="0.43956044" width="11.3492025" height="39.5574862" rx="5.67460123"></rect>
                <rect id="Rectangle" transform="translate(20.500000, 34.293974) rotate(90.000000) translate(-20.500000, -34.293974) " x="14.8253988" y="14.5152304" width="11.3492025" height="39.5574862" rx="5.67460123"></rect>
                <rect id="Rectangle" x="28.8307975" y="0.43956044" width="11.3492025" height="39.5574862" rx="5.67460123"></rect>
                <rect id="Rectangle" transform="translate(20.500000, 6.142634) rotate(90.000000) translate(-20.500000, -6.142634) " x="14.8253988" y="-13.6361095" width="11.3492025" height="39.5574862" rx="5.67460123"></rect>
            </g>
        </g>
        <g id="Block" transform="translate(798.000000, 0.000000)" fill="#737373">
            <g id="Group-2">
                <rect id="Rectangle" x="0.82" y="0.43956044" width="11.3492025" height="39.5574862" rx="5.67460123"></rect>
                <rect id="Rectangle" transform="translate(20.500000, 34.293974) rotate(90.000000) translate(-20.500000, -34.293974) " x="14.8253988" y="14.5152304" width="11.3492025" height="39.5574862" rx="5.67460123"></rect>
                <rect id="Rectangle" x="28.8307975" y="0.43956044" width="11.3492025" height="39.5574862" rx="5.67460123"></rect>
                <rect id="Rectangle" transform="translate(20.500000, 6.142634) rotate(90.000000) translate(-20.500000, -6.142634) " x="14.8253988" y="-13.6361095" width="11.3492025" height="39.5574862" rx="5.67460123"></rect>
            </g>
        </g>
        <g id="Block" transform="translate(798.000000, 55.000000)" fill="#737373">
            <g id="Group-2">
                <rect id="Rectangle" x="0.82" y="0.43956044" width="11.3492025" height="39.5574862" rx="5.67460123"></rect>
                <rect id="Rectangle" transform="translate(20.500000, 34.293974) rotate(90.000000) translate(-20.500000, -34.293974) " x="14.8253988" y="14.5152304" width="11.3492025" height="39.5574862" rx="5.67460123"></rect>
                <rect id="Rectangle" x="28.8307975" y="0.43956044" width="11.3492025" height="39.5574862" rx="5.67460123"></rect>
                <rect id="Rectangle" transform="translate(20.500000, 6.142634) rotate(90.000000) translate(-20.500000, -6.142634) " x="14.8253988" y="-13.6361095" width="11.3492025" height="39.5574862" rx="5.67460123"></rect>
            </g>
        </g>
        <g id="Block" transform="translate(1026.000000, 110.000000)" fill="#737373">
            <g id="Group-2">
                <rect id="Rectangle" x="0.82" y="0.43956044" width="11.3492025" height="39.5574862" rx="5.67460123"></rect>
                <rect id="Rectangle" transform="translate(20.500000, 34.293974) rotate(90.000000) translate(-20.500000, -34.293974) " x="14.8253988" y="14.5152304" width="11.3492025" height="39.5574862" rx="5.67460123"></rect>
                <rect id="Rectangle" x="28.8307975" y="0.43956044" width="11.3492025" height="39.5574862" rx="5.67460123"></rect>
                <rect id="Rectangle" transform="translate(20.500000, 6.142634) rotate(90.000000) translate(-20.500000, -6.142634) " x="14.8253988" y="-13.6361095" width="11.3492025" height="39.5574862" rx="5.67460123"></rect>
            </g>
        </g>
        <g id="Block" transform="translate(1026.000000, 0.000000)" fill="#737373">
            <g id="Group-2">
                <rect id="Rectangle" x="0.82" y="0.43956044" width="11.3492025" height="39.5574862" rx="5.67460123"></rect>
                <rect id="Rectangle" transform="translate(20.500000, 34.293974) rotate(90.000000) translate(-20.500000, -34.293974) " x="14.8253988" y="14.5152304" width="11.3492025" height="39.5574862" rx="5.67460123"></rect>
                <rect id="Rectangle" x="28.8307975" y="0.43956044" width="11.3492025" height="39.5574862" rx="5.67460123"></rect>
                <rect id="Rectangle" transform="translate(20.500000, 6.142634) rotate(90.000000) translate(-20.500000, -6.142634) " x="14.8253988" y="-13.6361095" width="11.3492025" height="39.5574862" rx="5.67460123"></rect>
            </g>
        </g>
        <g id="Block" transform="translate(1026.000000, 55.000000)" fill="#737373">
            <g id="Group-2">
                <rect id="Rectangle" x="0.82" y="0.43956044" width="11.3492025" height="39.5574862" rx="5.67460123"></rect>
                <rect id="Rectangle" transform="translate(20.500000, 34.293974) rotate(90.000000) translate(-20.500000, -34.293974) " x="14.8253988" y="14.5152304" width="11.3492025" height="39.5574862" rx="5.67460123"></rect>
                <rect id="Rectangle" x="28.8307975" y="0.43956044" width="11.3492025" height="39.5574862" rx="5.67460123"></rect>
                <rect id="Rectangle" transform="translate(20.500000, 6.142634) rotate(90.000000) translate(-20.500000, -6.142634) " x="14.8253988" y="-13.6361095" width="11.3492025" height="39.5574862" rx="5.67460123"></rect>
            </g>
        </g>
        <g id="Block" transform="translate(1197.000000, 110.000000)" fill="#737373">
            <g id="Group-2">
                <rect id="Rectangle" x="0.82" y="0.43956044" width="11.3492025" height="39.5574862" rx="5.67460123"></rect>
                <rect id="Rectangle" transform="translate(20.500000, 34.293974) rotate(90.000000) translate(-20.500000, -34.293974) " x="14.8253988" y="14.5152304" width="11.3492025" height="39.5574862" rx="5.67460123"></rect>
                <rect id="Rectangle" x="28.8307975" y="0.43956044" width="11.3492025" height="39.5574862" rx="5.67460123"></rect>
                <rect id="Rectangle" transform="translate(20.500000, 6.142634) rotate(90.000000) translate(-20.500000, -6.142634) " x="14.8253988" y="-13.6361095" width="11.3492025" height="39.5574862" rx="5.67460123"></rect>
            </g>
        </g>
        <g id="Block" transform="translate(1197.000000, 0.000000)" fill="#737373">
            <g id="Group-2">
                <rect id="Rectangle" x="0.82" y="0.43956044" width="11.3492025" height="39.5574862" rx="5.67460123"></rect>
                <rect id="Rectangle" transform="translate(20.500000, 34.293974) rotate(90.000000) translate(-20.500000, -34.293974) " x="14.8253988" y="14.5152304" width="11.3492025" height="39.5574862" rx="5.67460123"></rect>
                <rect id="Rectangle" x="28.8307975" y="0.43956044" width="11.3492025" height="39.5574862" rx="5.67460123"></rect>
                <rect id="Rectangle" transform="translate(20.500000, 6.142634) rotate(90.000000) translate(-20.500000, -6.142634) " x="14.8253988" y="-13.6361095" width="11.3492025" height="39.5574862" rx="5.67460123"></rect>
            </g>
        </g>
        <g id="Block" transform="translate(1197.000000, 55.000000)" fill="#737373">
            <g id="Group-2">
                <rect id="Rectangle" x="0.82" y="0.43956044" width="11.3492025" height="39.5574862" rx="5.67460123"></rect>
                <rect id="Rectangle" transform="translate(20.500000, 34.293974) rotate(90.000000) translate(-20.500000, -34.293974) " x="14.8253988" y="14.5152304" width="11.3492025" height="39.5574862" rx="5.67460123"></rect>
                <rect id="Rectangle" x="28.8307975" y="0.43956044" width="11.3492025" height="39.5574862" rx="5.67460123"></rect>
                <rect id="Rectangle" transform="translate(20.500000, 6.142634) rotate(90.000000) translate(-20.500000, -6.142634) " x="14.8253988" y="-13.6361095" width="11.3492025" height="39.5574862" rx="5.67460123"></rect>
            </g>
        </g>
        <g id="Block" transform="translate(1254.000000, 110.000000)" fill="#737373">
            <g id="Group-2">
                <rect id="Rectangle" x="0.82" y="0.43956044" width="11.3492025" height="39.5574862" rx="5.67460123"></rect>
                <rect id="Rectangle" transform="translate(20.500000, 34.293974) rotate(90.000000) translate(-20.500000, -34.293974) " x="14.8253988" y="14.5152304" width="11.3492025" height="39.5574862" rx="5.67460123"></rect>
                <rect id="Rectangle" x="28.8307975" y="0.43956044" width="11.3492025" height="39.5574862" rx="5.67460123"></rect>
                <rect id="Rectangle" transform="translate(20.500000, 6.142634) rotate(90.000000) translate(-20.500000, -6.142634) " x="14.8253988" y="-13.6361095" width="11.3492025" height="39.5574862" rx="5.67460123"></rect>
            </g>
        </g>
        <g id="Block" transform="translate(1254.000000, 0.000000)" fill="#737373">
            <g id="Group-2">
                <rect id="Rectangle" x="0.82" y="0.43956044" width="11.3492025" height="39.5574862" rx="5.67460123"></rect>
                <rect id="Rectangle" transform="translate(20.500000, 34.293974) rotate(90.000000) translate(-20.500000, -34.293974) " x="14.8253988" y="14.5152304" width="11.3492025" height="39.5574862" rx="5.67460123"></rect>
                <rect id="Rectangle" x="28.8307975" y="0.43956044" width="11.3492025" height="39.5574862" rx="5.67460123"></rect>
                <rect id="Rectangle" transform="translate(20.500000, 6.142634) rotate(90.000000) translate(-20.500000, -6.142634) " x="14.8253988" y="-13.6361095" width="11.3492025" height="39.5574862" rx="5.67460123"></rect>
            </g>
        </g>
        <g id="Block" transform="translate(1254.000000, 55.000000)" fill="#737373">
            <g id="Group-2">
                <rect id="Rectangle" x="0.82" y="0.43956044" width="11.3492025" height="39.5574862" rx="5.67460123"></rect>
                <rect id="Rectangle" transform="translate(20.500000, 34.293974) rotate(90.000000) translate(-20.500000, -34.293974) " x="14.8253988" y="14.5152304" width="11.3492025" height="39.5574862" rx="5.67460123"></rect>
                <rect id="Rectangle" x="28.8307975" y="0.43956044" width="11.3492025" height="39.5574862" rx="5.67460123"></rect>
                <rect id="Rectangle" transform="translate(20.500000, 6.142634) rotate(90.000000) translate(-20.500000, -6.142634) " x="14.8253988" y="-13.6361095" width="11.3492025" height="39.5574862" rx="5.67460123"></rect>
            </g>
        </g>
        <g id="Block" transform="translate(1311.000000, 110.000000)" fill="#737373">
            <g id="Group-2">
                <rect id="Rectangle" x="0.82" y="0.43956044" width="11.3492025" height="39.5574862" rx="5.67460123"></rect>
                <rect id="Rectangle" transform="translate(20.500000, 34.293974) rotate(90.000000) translate(-20.500000, -34.293974) " x="14.8253988" y="14.5152304" width="11.3492025" height="39.5574862" rx="5.67460123"></rect>
                <rect id="Rectangle" x="28.8307975" y="0.43956044" width="11.3492025" height="39.5574862" rx="5.67460123"></rect>
                <rect id="Rectangle" transform="translate(20.500000, 6.142634) rotate(90.000000) translate(-20.500000, -6.142634) " x="14.8253988" y="-13.6361095" width="11.3492025" height="39.5574862" rx="5.67460123"></rect>
            </g>
        </g>
        <g id="Block" transform="translate(1311.000000, 0.000000)" fill="#737373">
            <g id="Group-2">
                <rect id="Rectangle" x="0.82" y="0.43956044" width="11.3492025" height="39.5574862" rx="5.67460123"></rect>
                <rect id="Rectangle" transform="translate(20.500000, 34.293974) rotate(90.000000) translate(-20.500000, -34.293974) " x="14.8253988" y="14.5152304" width="11.3492025" height="39.5574862" rx="5.67460123"></rect>
                <rect id="Rectangle" x="28.8307975" y="0.43956044" width="11.3492025" height="39.5574862" rx="5.67460123"></rect>
                <rect id="Rectangle" transform="translate(20.500000, 6.142634) rotate(90.000000) translate(-20.500000, -6.142634) " x="14.8253988" y="-13.6361095" width="11.3492025" height="39.5574862" rx="5.67460123"></rect>
            </g>
        </g>
        <g id="Block" transform="translate(1311.000000, 55.000000)" fill="#737373">
            <g id="Group-2">
                <rect id="Rectangle" x="0.82" y="0.43956044" width="11.3492025" height="39.5574862" rx="5.67460123"></rect>
                <rect id="Rectangle" transform="translate(20.500000, 34.293974) rotate(90.000000) translate(-20.500000, -34.293974) " x="14.8253988" y="14.5152304" width="11.3492025" height="39.5574862" rx="5.67460123"></rect>
                <rect id="Rectangle" x="28.8307975" y="0.43956044" width="11.3492025" height="39.5574862" rx="5.67460123"></rect>
                <rect id="Rectangle" transform="translate(20.500000, 6.142634) rotate(90.000000) translate(-20.500000, -6.142634) " x="14.8253988" y="-13.6361095" width="11.3492025" height="39.5574862" rx="5.67460123"></rect>
            </g>
        </g>
        <g id="Block" transform="translate(1083.000000, 110.000000)" fill="#737373">
            <g id="Group-2">
                <rect id="Rectangle" x="0.82" y="0.43956044" width="11.3492025" height="39.5574862" rx="5.67460123"></rect>
                <rect id="Rectangle" transform="translate(20.500000, 34.293974) rotate(90.000000) translate(-20.500000, -34.293974) " x="14.8253988" y="14.5152304" width="11.3492025" height="39.5574862" rx="5.67460123"></rect>
                <rect id="Rectangle" x="28.8307975" y="0.43956044" width="11.3492025" height="39.5574862" rx="5.67460123"></rect>
                <rect id="Rectangle" transform="translate(20.500000, 6.142634) rotate(90.000000) translate(-20.500000, -6.142634) " x="14.8253988" y="-13.6361095" width="11.3492025" height="39.5574862" rx="5.67460123"></rect>
            </g>
        </g>
        <g id="Block" transform="translate(1083.000000, 55.000000)" fill="#737373">
            <g id="Group-2">
                <rect id="Rectangle" x="0.82" y="0.43956044" width="11.3492025" height="39.5574862" rx="5.67460123"></rect>
                <rect id="Rectangle" transform="translate(20.500000, 34.293974) rotate(90.000000) translate(-20.500000, -34.293974) " x="14.8253988" y="14.5152304" width="11.3492025" height="39.5574862" rx="5.67460123"></rect>
                <rect id="Rectangle" x="28.8307975" y="0.43956044" width="11.3492025" height="39.5574862" rx="5.67460123"></rect>
                <rect id="Rectangle" transform="translate(20.500000, 6.142634) rotate(90.000000) translate(-20.500000, -6.142634) " x="14.8253988" y="-13.6361095" width="11.3492025" height="39.5574862" rx="5.67460123"></rect>
            </g>
        </g>
        <g id="Block" transform="translate(1140.000000, 110.000000)" fill="#737373">
            <g id="Group-2">
                <rect id="Rectangle" x="0.82" y="0.43956044" width="11.3492025" height="39.5574862" rx="5.67460123"></rect>
                <rect id="Rectangle" transform="translate(20.500000, 34.293974) rotate(90.000000) translate(-20.500000, -34.293974) " x="14.8253988" y="14.5152304" width="11.3492025" height="39.5574862" rx="5.67460123"></rect>
                <rect id="Rectangle" x="28.8307975" y="0.43956044" width="11.3492025" height="39.5574862" rx="5.67460123"></rect>
                <rect id="Rectangle" transform="translate(20.500000, 6.142634) rotate(90.000000) translate(-20.500000, -6.142634) " x="14.8253988" y="-13.6361095" width="11.3492025" height="39.5574862" rx="5.67460123"></rect>
            </g>
        </g>
        <g id="Block" transform="translate(1140.000000, 55.000000)" fill="#737373">
            <g id="Group-2">
                <rect id="Rectangle" x="0.82" y="0.43956044" width="11.3492025" height="39.5574862" rx="5.67460123"></rect>
                <rect id="Rectangle" transform="translate(20.500000, 34.293974) rotate(90.000000) translate(-20.500000, -34.293974) " x="14.8253988" y="14.5152304" width="11.3492025" height="39.5574862" rx="5.67460123"></rect>
                <rect id="Rectangle" x="28.8307975" y="0.43956044" width="11.3492025" height="39.5574862" rx="5.67460123"></rect>
                <rect id="Rectangle" transform="translate(20.500000, 6.142634) rotate(90.000000) translate(-20.500000, -6.142634) " x="14.8253988" y="-13.6361095" width="11.3492025" height="39.5574862" rx="5.67460123"></rect>
            </g>
        </g>
        <g id="Block" transform="translate(912.000000, 110.000000)" fill="#737373">
            <g id="Group-2">
                <rect id="Rectangle" x="0.82" y="0.43956044" width="11.3492025" height="39.5574862" rx="5.67460123"></rect>
                <rect id="Rectangle" transform="translate(20.500000, 34.293974) rotate(90.000000) translate(-20.500000, -34.293974) " x="14.8253988" y="14.5152304" width="11.3492025" height="39.5574862" rx="5.67460123"></rect>
                <rect id="Rectangle" x="28.8307975" y="0.43956044" width="11.3492025" height="39.5574862" rx="5.67460123"></rect>
                <rect id="Rectangle" transform="translate(20.500000, 6.142634) rotate(90.000000) translate(-20.500000, -6.142634) " x="14.8253988" y="-13.6361095" width="11.3492025" height="39.5574862" rx="5.67460123"></rect>
            </g>
        </g>
        <g id="Block" transform="translate(969.000000, 110.000000)" fill="#737373">
            <g id="Group-2">
                <rect id="Rectangle" x="0.82" y="0.43956044" width="11.3492025" height="39.5574862" rx="5.67460123"></rect>
                <rect id="Rectangle" transform="translate(20.500000, 34.293974) rotate(90.000000) translate(-20.500000, -34.293974) " x="14.8253988" y="14.5152304" width="11.3492025" height="39.5574862" rx="5.67460123"></rect>
                <rect id="Rectangle" x="28.8307975" y="0.43956044" width="11.3492025" height="39.5574862" rx="5.67460123"></rect>
                <rect id="Rectangle" transform="translate(20.500000, 6.142634) rotate(90.000000) translate(-20.500000, -6.142634) " x="14.8253988" y="-13.6361095" width="11.3492025" height="39.5574862" rx="5.67460123"></rect>
            </g>
        </g>
        <g id="Block" transform="translate(912.000000, 55.000000)" fill="#737373">
            <g id="Group-2">
                <rect id="Rectangle" x="0.82" y="0.43956044" width="11.3492025" height="39.5574862" rx="5.67460123"></rect>
                <rect id="Rectangle" transform="translate(20.500000, 34.293974) rotate(90.000000) translate(-20.500000, -34.293974) " x="14.8253988" y="14.5152304" width="11.3492025" height="39.5574862" rx="5.67460123"></rect>
                <rect id="Rectangle" x="28.8307975" y="0.43956044" width="11.3492025" height="39.5574862" rx="5.67460123"></rect>
                <rect id="Rectangle" transform="translate(20.500000, 6.142634) rotate(90.000000) translate(-20.500000, -6.142634) " x="14.8253988" y="-13.6361095" width="11.3492025" height="39.5574862" rx="5.67460123"></rect>
            </g>
        </g>
        <g id="Block" transform="translate(969.000000, 55.000000)" fill="#737373">
            <g id="Group-2">
                <rect id="Rectangle" x="0.82" y="0.43956044" width="11.3492025" height="39.5574862" rx="5.67460123"></rect>
                <rect id="Rectangle" transform="translate(20.500000, 34.293974) rotate(90.000000) translate(-20.500000, -34.293974) " x="14.8253988" y="14.5152304" width="11.3492025" height="39.5574862" rx="5.67460123"></rect>
                <rect id="Rectangle" x="28.8307975" y="0.43956044" width="11.3492025" height="39.5574862" rx="5.67460123"></rect>
                <rect id="Rectangle" transform="translate(20.500000, 6.142634) rotate(90.000000) translate(-20.500000, -6.142634) " x="14.8253988" y="-13.6361095" width="11.3492025" height="39.5574862" rx="5.67460123"></rect>
            </g>
        </g>
        <g id="Block" transform="translate(570.000000, 55.000000)" fill="#737373">
            <g id="Group-2">
                <rect id="Rectangle" x="0.82" y="0.43956044" width="11.3492025" height="39.5574862" rx="5.67460123"></rect>
                <rect id="Rectangle" transform="translate(20.500000, 34.293974) rotate(90.000000) translate(-20.500000, -34.293974) " x="14.8253988" y="14.5152304" width="11.3492025" height="39.5574862" rx="5.67460123"></rect>
                <rect id="Rectangle" x="28.8307975" y="0.43956044" width="11.3492025" height="39.5574862" rx="5.67460123"></rect>
                <rect id="Rectangle" transform="translate(20.500000, 6.142634) rotate(90.000000) translate(-20.500000, -6.142634) " x="14.8253988" y="-13.6361095" width="11.3492025" height="39.5574862" rx="5.67460123"></rect>
            </g>
        </g>
        <g id="Block" transform="translate(627.000000, 110.000000)" fill="#737373">
            <g id="Group-2">
                <rect id="Rectangle" x="0.82" y="0.43956044" width="11.3492025" height="39.5574862" rx="5.67460123"></rect>
                <rect id="Rectangle" transform="translate(20.500000, 34.293974) rotate(90.000000) translate(-20.500000, -34.293974) " x="14.8253988" y="14.5152304" width="11.3492025" height="39.5574862" rx="5.67460123"></rect>
                <rect id="Rectangle" x="28.8307975" y="0.43956044" width="11.3492025" height="39.5574862" rx="5.67460123"></rect>
                <rect id="Rectangle" transform="translate(20.500000, 6.142634) rotate(90.000000) translate(-20.500000, -6.142634) " x="14.8253988" y="-13.6361095" width="11.3492025" height="39.5574862" rx="5.67460123"></rect>
            </g>
        </g>
        <g id="Block" transform="translate(684.000000, 110.000000)" fill="#737373">
            <g id="Group-2">
                <rect id="Rectangle" x="0.82" y="0.43956044" width="11.3492025" height="39.5574862" rx="5.67460123"></rect>
                <rect id="Rectangle" transform="translate(20.500000, 34.293974) rotate(90.000000) translate(-20.500000, -34.293974) " x="14.8253988" y="14.5152304" width="11.3492025" height="39.5574862" rx="5.67460123"></rect>
                <rect id="Rectangle" x="28.8307975" y="0.43956044" width="11.3492025" height="39.5574862" rx="5.67460123"></rect>
                <rect id="Rectangle" transform="translate(20.500000, 6.142634) rotate(90.000000) translate(-20.500000, -6.142634) " x="14.8253988" y="-13.6361095" width="11.3492025" height="39.5574862" rx="5.67460123"></rect>
            </g>
        </g>
        <g id="Block" transform="translate(627.000000, 55.000000)" fill="#737373">
            <g id="Group-2">
                <rect id="Rectangle" x="0.82" y="0.43956044" width="11.3492025" height="39.5574862" rx="5.67460123"></rect>
                <rect id="Rectangle" transform="translate(20.500000, 34.293974) rotate(90.000000) translate(-20.500000, -34.293974) " x="14.8253988" y="14.5152304" width="11.3492025" height="39.5574862" rx="5.67460123"></rect>
                <rect id="Rectangle" x="28.8307975" y="0.43956044" width="11.3492025" height="39.5574862" rx="5.67460123"></rect>
                <rect id="Rectangle" transform="translate(20.500000, 6.142634) rotate(90.000000) translate(-20.500000, -6.142634) " x="14.8253988" y="-13.6361095" width="11.3492025" height="39.5574862" rx="5.67460123"></rect>
            </g>
        </g>
        <g id="Block" transform="translate(114.000000, 55.000000)" fill="#737373">
            <g id="Group-2">
                <rect id="Rectangle" x="0.82" y="0.43956044" width="11.3492025" height="39.5574862" rx="5.67460123"></rect>
                <rect id="Rectangle" transform="translate(20.500000, 34.293974) rotate(90.000000) translate(-20.500000, -34.293974) " x="14.8253988" y="14.5152304" width="11.3492025" height="39.5574862" rx="5.67460123"></rect>
                <rect id="Rectangle" x="28.8307975" y="0.43956044" width="11.3492025" height="39.5574862" rx="5.67460123"></rect>
                <rect id="Rectangle" transform="translate(20.500000, 6.142634) rotate(90.000000) translate(-20.500000, -6.142634) " x="14.8253988" y="-13.6361095" width="11.3492025" height="39.5574862" rx="5.67460123"></rect>
            </g>
        </g>
    </g>
</svg>
