<svg width="195px" height="101px" viewBox="622 463 195 101" version="1.1" xmlns="http://www.w3.org/2000/svg" xmlns:xlink="http://www.w3.org/1999/xlink">
    <!-- Generator: Sketch 41.2 (35397) - http://www.bohemiancoding.com/sketch -->
    <desc>Created with Sketch.</desc>
    <defs></defs>
    <path d="M793.893023,469.852751 C792.917854,465.980082 789.413534,463.114439 785.239972,463.114439 L740.922967,463.114439 C736.750718,463.114439 733.247201,465.979145 732.270796,469.849633 C732.002398,470.698911 731.857649,471.603108 731.857649,472.541109 L731.857649,516.858114 C731.857649,517.574237 731.942044,518.270659 732.101433,518.937983 C732.752038,523.227712 736.453802,526.513662 740.922967,526.513662 L785.239972,526.513662 C789.708565,526.513662 793.410056,523.227559 794.061284,518.939179 C794.220819,518.271493 794.305289,517.574667 794.305289,516.858114 L794.305289,472.541109 C794.305289,471.604259 794.160852,470.701127 793.893023,469.852751 Z M776.4528,480.966928 L749.710138,480.966928 L749.710138,508.661174 L776.4528,508.661174 L776.4528,480.966928 Z" id="Combined-Shape-Copy-17" stroke="none" fill="#66BFBF" fill-rule="evenodd"></path>
    <path d="M722.005584,482.083125 C720.85533,477.51514 716.721828,474.134986 711.798924,474.134986 L659.525038,474.134986 C654.603684,474.134986 650.471129,477.514034 649.319416,482.079448 C649.002828,483.081209 648.832091,484.14775 648.832091,485.254165 L648.832091,537.528051 C648.832091,538.37275 648.931638,539.194211 649.119645,539.981349 C649.887062,545.041276 654.253458,548.917201 659.525038,548.917201 L711.798924,548.917201 C717.06983,548.917201 721.435904,545.041095 722.204056,539.98276 C722.392235,539.195194 722.491871,538.373257 722.491871,537.528051 L722.491871,485.254165 C722.491871,484.149108 722.321501,483.083823 722.005584,482.083125 Z M701.434063,495.192794 L669.889899,495.192794 L669.889899,527.859393 L701.434063,527.859393 L701.434063,495.192794 Z" id="Combined-Shape" stroke="none" fill="#FD5C63" fill-rule="evenodd"></path>
    <path d="M751.50476,516.708781 C750.694424,513.488105 747.777528,511.09523 744.303351,511.09523 L707.425198,511.09523 C703.960423,511.09523 701.038318,513.480797 700.225053,516.703367 C700.001934,517.409078 699.881543,518.160311 699.881543,518.939582 L699.881543,555.817735 C699.881543,556.411573 699.951621,556.989471 700.083979,557.543542 C700.62418,561.109107 703.705226,563.852546 707.425198,563.852546 L744.303351,563.852546 C748.013944,563.852546 751.102134,561.116468 751.644189,557.546417 C751.776777,556.991739 751.847005,556.412914 751.847005,555.817735 L751.847005,518.939582 C751.847005,518.162825 751.727107,517.413342 751.50476,516.708781 Z M736.991154,525.951081 L714.737394,525.951081 L714.737394,548.996695 L736.991154,548.996695 L736.991154,525.951081 Z" id="Combined-Shape-Copy-16" stroke="none" fill="#FFB900" fill-rule="evenodd"></path>
</svg>
